<svg xmlns="http://www.w3.org/2000/svg" width="465" height="675" viewBox="0 0 465 675">
  <g id="グループ_24" data-name="グループ 24" transform="translate(-327.804 -171)">
    <g id="prowres_アートボード_1_のコピー" data-name="prowres_アートボード 1 のコピー" transform="translate(327.803 171)">
      <path id="パス_83" data-name="パス 83" d="M173.994,440.754c-4.048-7.66-7.876-18.047-19.926-18.79-.788-.047-17.469-97.838-4.056-146.112C216.169,37.76,488.553,95.457,551.032,214.2c50.129,95.261,8.837,200.782,5.552,219.524C545.2,347.13,525.3,344.055,538.6,301.274S505.21,199.35,476.637,208.551c-149.758,48.164-220.727-6.055-248.214,15.9s10.357,69.475-11.7,110.928S178.436,374.188,173.994,440.754Z" transform="translate(-113.355 -111.208)"/>
      <path id="パス_84" data-name="パス 84" d="M301.733,1045.968c52.575,30.923,142.365,77.854,226.33,21.635-17.391,35.113-56.4,56.44-94.273,56.44C380.149,1124.043,354.854,1095.191,301.733,1045.968Z" transform="translate(-170.919 -449.044)"/>
      <path id="パス_85" data-name="パス 85" d="M486.858,840.554c6.126-3.81,7.9-7.8,12.332-14.229a4.83,4.83,0,0,0-3.431-7.517c-13.675-1.581-27.042-6.166-50.227-13.067-15.81-4.743-31.342-3.5-46.559-.253-5.77,1.233-11.067,5.32-16.094,8.79-.79.53.34,5.391,1.85,7.17,1.62,1.9,4.743,2.514,8.79,4.443-20.339,3.676-41-12.308-45.99-35.461-3.589.633-7.351,6.142-6.608,11.359-.87-.292-6.387-4.98,4.237-35.572,16.11-46.377,46.97-57.081,53.5-63.642-10.822,17.248-9.257,31.983,0,39.666-3.794,2.648-10.98,1.581-15.991-7.059-8.379,3.114-16.379,20.442-19.24,26.165-5.494,10.988-7.359,24.331-8.34,36.844-.625,7.9,10.569,9.6,13.509,6.656,25.667-25.667,47.081-20.426,72.621-14.229,13.438,3.257,25.05.324,38.733,2.8,20.434,3.7,29.532,24.236,39.184,28.2C519.149,825.638,506.233,841.416,486.858,840.554Z" transform="translate(-184.271 -324.945)"/>
      <path id="パス_86" data-name="パス 86" d="M673.627,530.2c-33.445-19.857-52.266-9.209-55.476-7.525-11.391,5.984-21.6,6.751-33.643,11.288-14.142,5.336-11.533,35.255-3.8,37,27.24-21.738,75.989,6.822,75.57,11.494-11.912-.862-36.362,1.043-54.646.925-5.344,0-10.814,0-15.984-1.146a29.372,29.372,0,0,0-11.4.245,6.071,6.071,0,0,1-7-3.573c-6.7-15.667-6.063-33.39,2.11-46.781C606.088,471.92,669.674,515.032,673.627,530.2Z" transform="translate(-265.913 -252.1)"/>
      <path id="パス_87" data-name="パス 87" d="M374.7,584.568c10.11,0,21.4,7.375,24.647,22.134-32.931-6.593-54.6-5.533-85.19-9.106C334.648,591.105,364.592,584.568,374.7,584.568Z" transform="translate(-175.119 -282.282)"/>
      <path id="パス_88" data-name="パス 88" d="M637.783,800.938c-7.351-31.011-47.958-67.61-40.03-81.815,5.383,8.142.411,4.095,26.086,35.374S637.783,800.938,637.783,800.938Z" transform="translate(-277.831 -330.918)"/>
      <path id="パス_89" data-name="パス 89" d="M303.219,526.43c19.588-38.338,59.784-24,76.028-15.233,6.782,3.66,25.651,13.517,28.268,16.742C383.326,534.73,346.561,505.562,303.219,526.43Z" transform="translate(-171.167 -252.134)"/>
      <path id="パス_90" data-name="パス 90" d="M462.853,767.945c9.668,8.6,23.129,18.11,38.022,6.118s21.936-4.229,19.5.941-34.915,18.418-54.638,2.822c-11-8.7-28.963-3.02-27.809-10.758S453.185,759.353,462.853,767.945Z" transform="translate(-220.141 -346.182)"/>
      <path id="パス_91" data-name="パス 91" d="M129.486,721.685c-41.674-37.825-35.856-80.874-29.351-93.87s22.386-19.209,32.109-3.162C100.775,646.652,126.379,699.749,129.486,721.685Z" transform="translate(-95.56 -293.313)"/>
      <path id="パス_92" data-name="パス 92" d="M508.344,971.007c-13.059,5.407-13.794,8.7-22.26,8.7-17.667,0-23.714-9.486-26.157-12.608C465.911,962.96,497.467,957.98,508.344,971.007Z" transform="translate(-228.086 -418.926)"/>
      <path id="パス_93" data-name="パス 93" d="M460.4,937.631c21.137,2.213,41.9,2.1,61.42-8.174C512.1,947.046,481.076,948.192,460.4,937.631Z" transform="translate(-228.286 -406.926)"/>
      <path id="パス_94" data-name="パス 94" d="M808.6,687.281c.482-7.6,4.245-31.437-7.984-40.37,1.668-1.439,7.344-8,13.588.387S814.573,679.906,808.6,687.281Z" transform="translate(-351.881 -303.442)"/>
      <path id="パス_95" data-name="パス 95" d="M643.759,647.787c-18.221,6-32.236,6.743-46.939-6.869C615.286,648.261,634.289,645.6,643.759,647.787Z" transform="translate(-277.873 -302.646)"/>
      <path id="パス_96" data-name="パス 96" d="M381,634.252c-19.6,0-26.639-4.743-28.457-5.984L375.8,627.6a250.953,250.953,0,0,0,31.92-3.027C406.235,626.228,400.591,634.252,381,634.252Z" transform="translate(-189.037 -296.738)"/>
      <path id="パス_97" data-name="パス 97" d="M158.717,695.761c-2.735-8.853-1.328-27.05,13.438-29.4-7.209,16.458,5.881,38.33,0,48.907C172.123,715.27,161.452,704.606,158.717,695.761Z" transform="translate(-117.969 -311.846)"/>
    </g>
  </g>
</svg>
