<svg id="icons_アートボード_1" data-name="icons_アートボード 1" xmlns="http://www.w3.org/2000/svg" width="495" height="248.952" viewBox="0 0 495 248.952">
  <path id="パス_33" data-name="パス 33" d="M256.567,103.912A51.946,51.946,0,1,1,308.532,51.96,51.946,51.946,0,0,1,256.567,103.912Z" transform="translate(186.466 0.018)" fill="#c9caca"/>
  <path id="パス_34" data-name="パス 34" d="M250.407,51.927V0A51.946,51.946,0,1,1,211.4,86.233Z" transform="translate(192.626 0)" fill="#0086d1"/>
  <circle id="楕円形_2" data-name="楕円形 2" cx="36.045" cy="36.045" r="36.045" transform="translate(406.988 15.882)" fill="#7ecef4"/>
  <path id="パス_35" data-name="パス 35" d="M225.684,29.753a3.573,3.573,0,0,0,1.338.688,5.524,5.524,0,0,0,1.452.191,3.994,3.994,0,0,0,1.586-.325,4.282,4.282,0,0,0,1.261-.917,4.053,4.053,0,0,0,.86-1.3,3.823,3.823,0,0,0,.306-1.548V25.453h-2.6v.879a1.911,1.911,0,0,1-.153.86,1.472,1.472,0,0,1-.363.554,1.624,1.624,0,0,1-.535.287,1.911,1.911,0,0,1-.535,0,1.338,1.338,0,0,1-1.2-.516,2.466,2.466,0,0,1-.325-1.3V17.292a3.135,3.135,0,0,1,.306-1.491,1.3,1.3,0,0,1,1.242-.573,1.357,1.357,0,0,1,1.147.535,2.045,2.045,0,0,1,.421,1.3V17.9h2.523v-.9a4.492,4.492,0,0,0-.306-1.7,4.032,4.032,0,0,0-.86-1.338A3.822,3.822,0,0,0,228.36,12.8a4.4,4.4,0,0,0-1.682.306,4.052,4.052,0,0,0-1.3.86,3.651,3.651,0,0,0-.841,1.28,4.434,4.434,0,0,0-.287,1.605v9.709a4.338,4.338,0,0,0,.382,1.911,3.822,3.822,0,0,0,1.051,1.28Z" transform="translate(204.334 11.662)" fill="#0086d1"/>
  <path id="パス_36" data-name="パス 36" d="M230.565,29.474a4.051,4.051,0,0,0,1.357.879,4.3,4.3,0,0,0,1.72.325,5.007,5.007,0,0,0,2.045-.382,3.708,3.708,0,0,0,1.376-1.089,4.663,4.663,0,0,0,.707-1.625A9.04,9.04,0,0,0,238,25.5a15.53,15.53,0,0,0,0-1.72,4.568,4.568,0,0,0-.382-1.338,2.962,2.962,0,0,0-.822-1.013,4.759,4.759,0,0,0-1.357-.745l-1.911-.784a4.281,4.281,0,0,1-.784-.382,1.72,1.72,0,0,1-.44-.478,1.623,1.623,0,0,1-.172-.612,6.064,6.064,0,0,1,0-.879,4.359,4.359,0,0,1,0-.86,1.663,1.663,0,0,1,.784-1.223,1.567,1.567,0,0,1,.841-.191,1.51,1.51,0,0,1,1.376.631,2.733,2.733,0,0,1,.42,1.491v.573h2.523V16.727a3.822,3.822,0,0,0-1.147-2.714,4.576,4.576,0,0,0-4.988-.879,3.535,3.535,0,0,0-1.319,1.032,4.071,4.071,0,0,0-.822,1.529,6.08,6.08,0,0,0-.268,1.911,5.963,5.963,0,0,0,.554,2.771,3.956,3.956,0,0,0,2.179,1.777l1.816.745a7.418,7.418,0,0,1,.764.363,1.452,1.452,0,0,1,.459.44,2.216,2.216,0,0,1,.191.726,9.275,9.275,0,0,1,0,1.147v1.07a2.082,2.082,0,0,1-.248.822,1.166,1.166,0,0,1-.554.535,2.045,2.045,0,0,1-.994.191,1.605,1.605,0,0,1-1.376-.554,2.007,2.007,0,0,1-.42-1.261v-.784H229.38v.936a3.823,3.823,0,0,0,.344,1.644,4.014,4.014,0,0,0,.841,1.3Z" transform="translate(209.009 11.616)" fill="#0086d1"/>
  <path id="パス_37" data-name="パス 37" d="M235.842,29.437a3.955,3.955,0,0,0,1.433.956,4.147,4.147,0,0,0,1.7.325,5.161,5.161,0,0,0,2.064-.382,3.651,3.651,0,0,0,1.357-1.089,4.338,4.338,0,0,0,.707-1.625,9.037,9.037,0,0,0,.229-2.083,15.5,15.5,0,0,0,0-1.72,4.566,4.566,0,0,0-.363-1.338,3.479,3.479,0,0,0-.822-1.013,4.624,4.624,0,0,0-1.376-.745l-1.911-.784a4.283,4.283,0,0,1-.784-.382,1.529,1.529,0,0,1-.612-1.089v-.879a4.359,4.359,0,0,1,0-.86,2.2,2.2,0,0,1,.268-.726,1.91,1.91,0,0,1,.516-.5,1.643,1.643,0,0,1,.86-.191,1.548,1.548,0,0,1,1.376.631,2.714,2.714,0,0,1,.4,1.491v.573h2.523V16.766a3.822,3.822,0,0,0-1.128-2.714,4.471,4.471,0,0,0-1.357-.917,4.185,4.185,0,0,0-1.72-.344,4.3,4.3,0,0,0-1.911.382,3.536,3.536,0,0,0-1.319,1.032,4.358,4.358,0,0,0-.822,1.529,6.726,6.726,0,0,0-.268,1.911,6.211,6.211,0,0,0,.554,2.771,4.071,4.071,0,0,0,2.2,1.777l1.8.745a5.894,5.894,0,0,1,.764.363,1.453,1.453,0,0,1,.459.44,1.912,1.912,0,0,1,.191.726,9.311,9.311,0,0,1,0,1.147v1.07a1.8,1.8,0,0,1-.229.822,1.2,1.2,0,0,1-.573.535,2.045,2.045,0,0,1-.994.191,1.605,1.605,0,0,1-1.376-.554,2.1,2.1,0,0,1-.4-1.261v-.784H234.6v.936a3.823,3.823,0,0,0,.344,1.644A4.337,4.337,0,0,0,235.842,29.437Z" transform="translate(213.765 11.653)" fill="#0086d1"/>
  <path id="パス_38" data-name="パス 38" d="M251.266,54.825a.573.573,0,0,0,.5-.612c.382-4.568.765-9.116,1.166-13.684.1-1.28.21-2.561.363-3.822,0-.535,0-.688-.612-.688H239.608V35.9l1.032-.478,12.69-5.447a.822.822,0,0,0,.573-.8c.134-1.586.287-3.153.5-4.74,0-.573-.1-.707-.65-.707h-29.3c-.535,0-.726.134-.631.707.21,1.491.4,3,.554,4.51,0,.573.248.8.9.8h13.761c.115,0,.248,0,.248.172a.248.248,0,0,1-.153.191,2.351,2.351,0,0,1-.5.229c-4.319,1.8-8.6,3.612-12.92,5.37a.9.9,0,0,0-.65,1.089c.172,1.682.287,3.345.44,5.026H236.97l9.078.1c.535,0,.631.191.593.65q-.229,3.325-.4,6.651c0,.287,0,.516-.4.631l-6.46,1.758h0a.745.745,0,0,1-.287,0l-6.154-1.529c-.382,0-.382-.325-.4-.612-.1-1.261-.21-2.523-.306-3.822,0-.325,0-.554-.5-.554H226.42c-.287,0-.4,0-.363.4.229,2.771.459,5.523.669,8.295a.86.86,0,0,0,.765.879l11.773,3.5,8.18-2.37Z" transform="translate(203.922 21.623)" fill="#0086d1"/>
  <path id="パス_39" data-name="パス 39" d="M231.758,38.71a.65.65,0,0,1-.268,0A.65.65,0,0,0,231.758,38.71Z" transform="translate(210.931 35.272)" fill="#fff"/>
  <path id="パス_40" data-name="パス 40" d="M51.965,103.931a51.965,51.965,0,1,1,51.965-51.965,51.965,51.965,0,0,1-51.965,51.965Z" transform="translate(0 0)" fill="#c9caca"/>
  <path id="パス_41" data-name="パス 41" d="M51.965,51.965V0A51.965,51.965,0,1,1,0,51.965Z" transform="translate(0 0)" fill="#f18e38"/>
  <circle id="楕円形_3" data-name="楕円形 3" cx="36.045" cy="36.045" r="36.045" transform="translate(15.92 16.092)" fill="#52251d"/>
  <path id="パス_42" data-name="パス 42" d="M15.27,50.931,25.839,18.25h8.027L44.435,50.931H36.427l-1.8-7.071H25.074l-1.8,7.071Zm11.1-12.843h6.8L29.814,24.844h0Z" transform="translate(13.914 16.629)" fill="#f18e38"/>
  <path id="パス_43" data-name="パス 43" d="M33.19,21.527h0A3.822,3.822,0,0,1,37.012,17.8h.134a3.822,3.822,0,0,1,3.822,3.727h0a3.822,3.822,0,0,1-3.822,3.727h-.134A3.822,3.822,0,0,1,33.19,21.527Zm0,29.815V28.1h7.645v23.24Z" transform="translate(30.242 16.219)" fill="#f18e38"/>
  <path id="パス_44" data-name="パス 44" d="M120.985,103.931a51.965,51.965,0,1,1,51.965-51.965,51.965,51.965,0,0,1-51.965,51.965Z" transform="translate(62.89 0)" fill="#c9caca"/>
  <path id="パス_45" data-name="パス 45" d="M105.3,51.965,105.342,0A51.965,51.965,0,1,1,86.23,100.337Z" transform="translate(78.572 0)" fill="#579ed7"/>
  <circle id="楕円形_4" data-name="楕円形 4" cx="36.045" cy="36.045" r="36.045" transform="translate(147.831 15.92)" fill="#081e34"/>
  <path id="パス_46" data-name="パス 46" d="M91.3,40.652V51.89H83.66V18.31h9.193c5.39,0,9.346.86,11.83,2.6a8.906,8.906,0,0,1,3.822,7.874q0,11.773-13.378,11.773Zm0-5.734h2.867a8.2,8.2,0,0,0,5.179-1.4,5.1,5.1,0,0,0,1.758-4.338,4.377,4.377,0,0,0-1.624-3.822,9.117,9.117,0,0,0-5.313-1.2H91.3Z" transform="translate(76.23 16.684)" fill="#579ed7"/>
  <path id="パス_47" data-name="パス 47" d="M117.383,29.557a26.087,26.087,0,0,0-7.97-1.261,5.829,5.829,0,0,0-2.657.44,1.529,1.529,0,0,0-.745,1.4c0,1.166.917,1.911,2.771,2.293a14.926,14.926,0,0,1,7.3,2.771,6.88,6.88,0,0,1,2.1,5.409,6.23,6.23,0,0,1-2.58,5.351,12.385,12.385,0,0,1-7.492,1.911,32.261,32.261,0,0,1-9.327-1.338v-5.6a22.934,22.934,0,0,0,8.428,1.567c2.274,0,3.4-.669,3.4-1.911a1.72,1.72,0,0,0-.631-1.414,5.829,5.829,0,0,0-2.332-.879,14.258,14.258,0,0,1-7.091-2.829,6.555,6.555,0,0,1-2.121-5.1,6.211,6.211,0,0,1,2.542-5.294,12.786,12.786,0,0,1,7.645-1.911,37.9,37.9,0,0,1,8.7,1.032Z" transform="translate(89.695 21.071)" fill="#579ed7"/>
  <path id="パス_48" data-name="パス 48" d="M188.775,103.931A51.965,51.965,0,1,1,240.74,51.965a51.965,51.965,0,0,1-51.965,51.965Z" transform="translate(124.66 0)" fill="#c9caca"/>
  <path id="パス_49" data-name="パス 49" d="M182.06,51.965V0a51.962,51.962,0,1,1-37.88,87.552Z" transform="translate(131.375 0)" fill="#d84f29"/>
  <circle id="楕円形_5" data-name="楕円形 5" cx="36.045" cy="36.045" r="36.045" transform="translate(277.428 15.863)" fill="#f3994f"/>
  <path id="パス_50" data-name="パス 50" d="M154.19,30.93V13.29h2.523v7.549h3.134V13.29h2.523V30.93h-2.523V23.075h-3.134V30.93Z" transform="translate(140.496 12.11)" fill="#d84f29"/>
  <path id="パス_51" data-name="パス 51" d="M161.974,30.93V15.641H159.05V13.29h8.39v2.37h-2.924v15.29Z" transform="translate(144.925 12.11)" fill="#d84f29"/>
  <path id="パス_52" data-name="パス 52" d="M164,30.93V13.29h2.427l3.249,9.327h0l3.23-9.327h2.561V30.93h-2.523V20.189h0l-2.5,7.645h-1.261l-2.465-7.645h0V30.93Z" transform="translate(149.435 12.11)" fill="#d84f29"/>
  <path id="パス_53" data-name="パス 53" d="M171.23,30.93V13.29h2.523v15.1h5.007V30.93Z" transform="translate(156.023 12.11)" fill="#d84f29"/>
  <path id="パス_54" data-name="パス 54" d="M185.3,24.62H157.226c-.344,0-.363.153-.344.42,0,.707.153,1.414.21,2.1.439,4.893.879,9.766,1.3,14.659,0,.306.134.382.42.382h19.322c.287,0,.459,0,.42.4-.229,2.2-.42,4.415-.592,6.632a.592.592,0,0,1-.516.612l-5.982,1.644c-1.911-.554-3.975-1.109-5.982-1.625a.612.612,0,0,1-.554-.669c-.1-1.2-.21-2.408-.306-3.612,0-.363-.153-.5-.535-.478h-4.8c-.478,0-.535.153-.5.573.248,2.714.5,5.428.726,8.161,0,.325.172.4.459.478,2.332.65,4.644,1.319,6.976,1.911,1.51.4,2.981.9,4.51,1.185a.515.515,0,0,0,.172,0L183.1,54.243a.42.42,0,0,0,.363-.44c0-.592.1-1.185.153-1.758.44-5.046.879-10.091,1.357-15.118,0-.573-.134-.612-.592-.592H164.47c-.478,0-.631-.134-.669-.612-.115-1.586-.229-3.153-.42-4.74,0-.5,0-.612.554-.612H185.4l.115-.1c.248-1.7.306-3.421.5-5.122C185.952,24.716,185.78,24.62,185.3,24.62Z" transform="translate(142.945 22.434)" fill="#d84f29"/>
  <path id="パス_55" data-name="パス 55" d="M171.73,27.716l.115-.1C171.845,27.716,171.806,27.735,171.73,27.716Z" transform="translate(156.479 25.167)" fill="#d84f29"/>
  <path id="パス_56" data-name="パス 56" d="M27.258,27.12a.229.229,0,0,1,0,.268C27.124,27.292,27.124,27.2,27.258,27.12Z" transform="translate(24.746 24.711)" fill="#9194c9"/>
  <path id="パス_57" data-name="パス 57" d="M27.216,27.16v.115C27.216,27.389,27.14,27.179,27.216,27.16Z" transform="translate(24.768 24.748)" fill="#9194c9"/>
  <path id="パス_58" data-name="パス 58" d="M27.19,27.18Z" transform="translate(24.775 24.766)" fill="#9194c9"/>
  <path id="パス_59" data-name="パス 59" d="M27.19,27.18Z" transform="translate(24.775 24.766)" fill="#9194c9"/>
  <path id="パス_60" data-name="パス 60" d="M27.19,27.18Z" transform="translate(24.775 24.766)" fill="#9194c9"/>
  <path id="パス_61" data-name="パス 61" d="M51.965,179.81a51.965,51.965,0,1,1,51.965-51.965A51.965,51.965,0,0,1,51.965,179.81Z" transform="translate(0 69.141)" fill="#c9caca"/>
  <path id="パス_62" data-name="パス 62" d="M27.19,127.845V75.88A51.927,51.927,0,0,1,71.014,99.923Z" transform="translate(24.775 69.141)" fill="#9194c9"/>
  <circle id="楕円形_6" data-name="楕円形 6" cx="36.045" cy="36.045" r="36.045" transform="translate(15.92 160.941)" fill="#192448"/>
  <path id="パス_63" data-name="パス 63" d="M38.271,124.511H35.461c-.535,0-.554,0-.726-.516-.726-2.1-1.472-4.224-2.179-6.326-.1-.229-.172-.325-.44-.325H22.083a.382.382,0,0,0-.44.325c-.65,2.1-1.338,4.2-2.026,6.307-.134.459-.248.535-.726.535H13.808c-.573,0-.688-.153-.5-.688q2.064-5.906,4.09-11.773Q20,104.6,22.58,97.143a8.065,8.065,0,0,0,.4-2.427c0-.478,0-.516.535-.516h7.052c.325,0,.459,0,.573.4l9.69,27.311c.248.688.5,1.376.726,2.064s0,.535-.382.535ZM27.033,99.666a2.529,2.529,0,0,1-.153.631c-.956,3.689-2.16,7.3-3.345,10.913,0,.268,0,.325.229.325h6.67a.363.363,0,0,0,.268,0C29.518,107.54,28.084,103.641,27.033,99.666Z" transform="translate(12.051 85.834)" fill="#9194c9"/>
  <path id="パス_64" data-name="パス 64" d="M35.766,111.459a5.046,5.046,0,0,0,4.51,4.625,14.143,14.143,0,0,0,7.645-.841c.268-.115.344,0,.344.21v4.4a.65.65,0,0,1-.4.631,13.532,13.532,0,0,1-4.128,1.128,23.088,23.088,0,0,1-3.631.153,11.467,11.467,0,0,1-6.727-2.217,10.225,10.225,0,0,1-3.822-5.906,14.124,14.124,0,0,1,.9-9.69,10.091,10.091,0,0,1,7.358-5.925,11.123,11.123,0,0,1,7.148.745,8.868,8.868,0,0,1,4.568,5.562,11.888,11.888,0,0,1,.516,4.778,7.711,7.711,0,0,1-.134,1.739.459.459,0,0,1-.478.459c-.917,0-1.911.153-2.771.153H35.766Zm4.109-4.491h3.937c.229,0,.325,0,.306-.325a4.166,4.166,0,0,0-.5-1.7,4.071,4.071,0,0,0-5.256-1.644,4.338,4.338,0,0,0-2.542,3.364c0,.287,0,.382.268.363Z" transform="translate(26.5 89.063)" fill="#9194c9"/>
  <path id="パス_65" data-name="パス 65" d="M139.75,27.317v-.172C139.75,27.088,139.846,27.279,139.75,27.317Z" transform="translate(127.339 24.725)" fill="#bf72ac"/>
  <path id="パス_66" data-name="パス 66" d="M120.985,179.81a51.965,51.965,0,1,1,51.965-51.965,51.965,51.965,0,0,1-51.965,51.965Z" transform="translate(62.89 69.141)" fill="#c9caca"/>
  <path id="パス_67" data-name="パス 67" d="M109.6,127.845V75.88A51.965,51.965,0,1,1,81.52,171.669Z" transform="translate(74.28 69.141)" fill="#bf72ac"/>
  <circle id="楕円形_7" data-name="楕円形 7" cx="36.045" cy="36.045" r="36.045" transform="translate(147.831 160.941)" fill="#441437"/>
  <path id="パス_68" data-name="パス 68" d="M76.314,90.92a.191.191,0,0,1,0,.248A.173.173,0,0,1,76.314,90.92Z" transform="translate(69.49 82.845)" fill="#bf72ac"/>
  <path id="パス_69" data-name="パス 69" d="M76.354,90.59v.172C76.354,90.8,76.24,90.628,76.354,90.59Z" transform="translate(69.527 82.545)" fill="#bf72ac"/>
  <path id="パス_70" data-name="パス 70" d="M76.372,90.39Z" transform="translate(69.566 82.362)" fill="#bf72ac"/>
  <path id="パス_71" data-name="パス 71" d="M117.97,108.6v13.378a12.55,12.55,0,0,0,.134,2.236c0,.459,0,.535-.478.726a22.191,22.191,0,0,1-5.734,1.453,23.972,23.972,0,0,1-3.306.172,12.212,12.212,0,0,1-7.205-2.274,9.556,9.556,0,0,1-3.631-5.886,13.932,13.932,0,0,1-.268-4.071,10.97,10.97,0,0,1,3.822-7.645,12.021,12.021,0,0,1,6.154-2.79,14.544,14.544,0,0,1,3.822-.153c.287,0,.363,0,.363-.325V95.257c0-.478,0-.5.516-.5h5.2c.42,0,.459,0,.459.459V108.6Zm-6.078,6.441V109.3c0-.229,0-.344-.325-.4a7.3,7.3,0,0,0-3.211.153,5.734,5.734,0,0,0-4.052,3.65,7.645,7.645,0,0,0-.172,4.147,5.084,5.084,0,0,0,2.274,3.536,7.377,7.377,0,0,0,5.294.707c.229,0,.172-.191.172-.325Z" transform="translate(88.783 86.344)" fill="#bf72ac"/>
  <path id="パス_72" data-name="パス 72" d="M96.3,114.155l-1.242,2.427c-1.453,2.695-2.867,5.409-4.377,8.084a.592.592,0,0,1-.573.382H84.067c-.306,0-.4-.229-.21-.554s.745-1.223,1.128-1.911q3.612-5.963,7.263-11.926a.4.4,0,0,0,0-.478q-3.822-6.441-7.645-12.92c-.172-.287-.363-.573-.535-.879s0-.44.229-.44H90.68a.612.612,0,0,1,.573.382c1.376,3.077,3.192,5.925,4.759,8.887.268.5.516.994.8,1.567l.363-.745c1.433-2.886,3-5.734,4.491-8.524.229-.4.44-.822.65-1.242a.535.535,0,0,1,.554-.325h5.734c.134,0,.287,0,.363.115s0,.287,0,.42l-4.4,7.243c-1.2,1.911-2.427,4.014-3.65,6.02a.4.4,0,0,0,0,.478l8.486,13.894c.115.21.344.4.21.669s-.459.191-.707.191h-5.734a1.223,1.223,0,0,1-1.223-.707c-1.644-3.345-3.478-6.594-5.275-9.881a.688.688,0,0,0-.382-.229Z" transform="translate(76.32 87.418)" fill="#bf72ac"/>
  <path id="パス_73" data-name="パス 73" d="M256.585,179.811a51.965,51.965,0,1,1,51.965-51.965,51.965,51.965,0,0,1-51.965,51.965Z" transform="translate(186.448 69.141)" fill="#c9caca"/>
  <path id="パス_74" data-name="パス 74" d="M231.81,127.845V75.88a51.946,51.946,0,0,1,46.556,74.976Z" transform="translate(211.223 69.141)" fill="#ffe200"/>
  <circle id="楕円形_8" data-name="楕円形 8" cx="36.045" cy="36.045" r="36.045" transform="translate(406.988 160.884)" fill="#f1b115"/>
  <path id="パス_75" data-name="パス 75" d="M239.52,103.55h.115A.178.178,0,0,1,239.52,103.55Z" transform="translate(218.248 94.354)" fill="#d84f29"/>
  <path id="パス_76" data-name="パス 76" d="M251.377,114.115h0c0-.325-.191-.382-.573-.363H231.692c-.287,0-.459,0-.42-.382.229-2.217.42-4.434.592-6.651a.593.593,0,0,1,.516-.612c2.007-.516,3.994-1.089,5.982-1.625,1.911.535,3.975,1.108,5.982,1.605a.631.631,0,0,1,.554.669c0,1.2.21,2.408.306,3.631,0,.363.153.478.535.478h4.8c.478,0,.535-.153.5-.573-.248-2.714-.5-5.447-.726-8.161,0-.325-.172-.42-.459-.5l-6.976-1.911c-1.51-.4-2.981-.9-4.51-1.2h-.172l-11.467,3.153a.44.44,0,0,0-.363.459c0,.592-.1,1.166-.153,1.758-.44,5.026-.879,10.072-1.357,15.118v.172h0c0,.325.21.363.592.363h19.112c.287,0,.459,0,.42.4-.229,2.2-.42,4.415-.592,6.632a.592.592,0,0,1-.535.612l-5.963,1.644c-1.911-.554-3.975-1.108-5.982-1.625a.612.612,0,0,1-.554-.669c-.1-1.2-.21-2.408-.306-3.612,0-.363-.153-.5-.535-.478h-4.8c-.478,0-.535.153-.5.573.248,2.714.5,5.428.707,8.161,0,.325.191.4.478.478,2.313.65,4.644,1.319,6.976,1.911,1.51.4,2.981.9,4.51,1.185a.516.516,0,0,0,.172,0l11.467-3.153c.268,0,.325-.229.344-.44l.172-1.758c.44-5.046.879-10.091,1.357-15.118V114.1Z" transform="translate(204.881 89.77)" fill="#ffe200"/>
  <path id="パス_77" data-name="パス 77" d="M234.109,88.66v13.378a4.262,4.262,0,0,1-1.128,3,4.377,4.377,0,0,1-1.338.917,4.452,4.452,0,0,1-1.816.344,3.65,3.65,0,0,1-2.007-.516,6.786,6.786,0,0,1-1.261-1.051l1.911-1.567a2.677,2.677,0,0,0,.631.459,1.643,1.643,0,0,0,.745.172,1.777,1.777,0,0,0,.516,0,1.338,1.338,0,0,0,.554-.344,1.357,1.357,0,0,0,.459-.631,2.677,2.677,0,0,0,.172-1.051V88.66Z" transform="translate(206.439 80.786)" fill="#ffe200"/>
  <path id="パス_78" data-name="パス 78" d="M240.082,93.778h-2.5v-.554a2.714,2.714,0,0,0-.4-1.491A1.529,1.529,0,0,0,235.8,91.1a1.472,1.472,0,0,0-1.357.688,2.71,2.71,0,0,0-.268.726,6,6,0,0,0,0,.86q0,.516,0,.86a2.081,2.081,0,0,0,.191.612,1.432,1.432,0,0,0,.44.459,3.458,3.458,0,0,0,.764.4l1.911.764a4.511,4.511,0,0,1,1.357.745,3.4,3.4,0,0,1,.822.994,5.487,5.487,0,0,1,.363,1.338,14.993,14.993,0,0,1,.1,1.72,8.7,8.7,0,0,1-.229,2.045,4.11,4.11,0,0,1-.707,1.605,3.65,3.65,0,0,1-1.357,1.089,4.625,4.625,0,0,1-2.026.382,4.491,4.491,0,0,1-1.7-.306,3.822,3.822,0,0,1-1.357-.9,4.166,4.166,0,0,1-.9-1.3,3.937,3.937,0,0,1-.325-1.644v-.936h2.5v.784a2.045,2.045,0,0,0,.4,1.242,1.548,1.548,0,0,0,1.376.554,2.389,2.389,0,0,0,.994-.172,1.491,1.491,0,0,0,.554-.535,2.083,2.083,0,0,0,.229-.822c0-.325,0-.688,0-1.07a8.934,8.934,0,0,0,0-1.128,2.215,2.215,0,0,0-.191-.726,1.452,1.452,0,0,0-.459-.44,6.873,6.873,0,0,0-.745-.363l-1.8-.745a3.822,3.822,0,0,1-2.179-1.758,6.1,6.1,0,0,1-.554-2.733,6.727,6.727,0,0,1,.268-1.911,4.529,4.529,0,0,1,.822-1.529,3.688,3.688,0,0,1,1.319-1.013,4.4,4.4,0,0,1,1.911-.382,4.185,4.185,0,0,1,1.72.344,4.377,4.377,0,0,1,1.338.917,3.822,3.822,0,0,1,1.128,2.695Z" transform="translate(210.958 80.694)" fill="#ffe200"/>
  <path id="パス_79" data-name="パス 79" d="M188.775,179.81a51.965,51.965,0,1,1,51.965-51.965,51.965,51.965,0,0,1-51.965,51.965Z" transform="translate(124.66 69.141)" fill="#c9caca"/>
  <path id="パス_80" data-name="パス 80" d="M164,127.845V75.88a51.927,51.927,0,0,1,49,34.746Z" transform="translate(149.435 69.141)" fill="#9194c9"/>
  <circle id="楕円形_9" data-name="楕円形 9" cx="36.045" cy="36.045" r="36.045" transform="translate(277.409 160.941)" fill="#192448"/>
  <path id="パス_81" data-name="パス 81" d="M153.58,111.025V95.3c0-.745,0-.745.784-.764l8.849-.172a18.348,18.348,0,0,1,7.033,1.051,10.053,10.053,0,0,1,6.708,7.645,12.059,12.059,0,0,1-.745,7.645,10.11,10.11,0,0,1-6.422,5.466,21.654,21.654,0,0,1-8.2.841c-1.242,0-1.223-.115-1.223,1.108v8.715c0,.631,0,.707-.688.707h-5.39c-.65,0-.688,0-.688-.688Zm6.8-5.065V110.8c0,.268,0,.44.363.44a18.1,18.1,0,0,0,5.734-.44,4.74,4.74,0,0,0,3.822-3.612,4.988,4.988,0,0,0-3.956-6.364,27.658,27.658,0,0,0-5.619-.21c-.344,0-.344.191-.344.44C160.4,102.692,160.384,104.317,160.384,105.96Z" transform="translate(139.941 85.961)" fill="#9194c9"/>
  <path id="パス_82" data-name="パス 82" d="M175.051,102.2a14.121,14.121,0,0,1,1.758-1.644,10.607,10.607,0,0,1,6.116-2.236c.478,0,.631.172.631.65V104.7c0,.5-.172.631-.631.612a13.168,13.168,0,0,0-6.211,1.357l-.268.134a1.8,1.8,0,0,0-1.032,1.911v14.735c0,.745,0,.745-.745.745h-5.581c-.669,0-.745,0-.745-.726v-15.29c0-2.752,0-5.5-.153-8.256,0-1.223,0-.994.975-1.013h4.4c.688,0,.956.21,1.07.9a12.139,12.139,0,0,1,.287,2.2A.786.786,0,0,0,175.051,102.2Z" transform="translate(153.253 89.588)" fill="#9194c9"/>
</svg>
