<svg xmlns="http://www.w3.org/2000/svg" width="594.561" height="860.282" viewBox="0 0 594.561 860.282">
  <g id="prowres_アートボード_1_のコピー" data-name="prowres_アートボード 1 のコピー" transform="translate(-95.56 -111.208)">
    <path id="パス_83" data-name="パス 83" d="M182.135,531.142c-5.177-9.761-10.073-23-25.484-23.943-1.007-.06-22.342-124.672-5.188-186.188,84.613-303.4,432.984-229.874,512.893-78.569,64.114,121.389,11.3,255.852,7.1,279.735-14.565-110.339-40.01-114.257-23.006-168.772s-42.7-129.88-79.244-118.155c-191.537,61.374-282.3-7.716-317.458,20.257s13.246,88.531-14.958,141.353S187.816,446.318,182.135,531.142Z" transform="translate(-9.166 0)"/>
    <path id="パス_84" data-name="パス 84" d="M301.733,1045.968c66.995,39.405,181.413,99.208,288.408,27.57-22.16,44.744-71.87,71.921-120.13,71.921C401.657,1145.458,369.423,1108.692,301.733,1045.968Z" transform="translate(-38.371 -173.968)"/>
    <path id="パス_85" data-name="パス 85" d="M527.49,878.4c7.806-4.855,10.073-9.942,15.714-18.131a6.155,6.155,0,0,0-4.372-9.579c-17.426-2.015-34.459-7.857-64-16.651-20.146-6.044-39.939-4.462-59.329-.322-7.353,1.571-14.1,6.779-20.508,11.2-1.007.675.433,6.87,2.357,9.136,2.065,2.418,6.044,3.2,11.2,5.661-25.918,4.684-52.248-15.684-58.6-45.187-4.573.806-9.368,7.827-8.421,14.475-1.108-.373-8.139-6.346,5.4-45.328,20.529-59.1,59.853-72.737,68.173-81.1-13.79,21.979-11.8,40.755,0,50.546-4.835,3.374-13.991,2.015-20.378-9-10.677,3.969-20.871,26.049-24.517,33.341-7,14-9.378,31-10.627,46.95-.8,10.073,13.467,12.229,17.215,8.481,32.707-32.707,59.994-26.029,92.54-18.131,17.124,4.15,31.921.413,49.357,3.566,26.039,4.714,37.632,30.883,49.931,35.94C568.638,859.391,552.179,879.5,527.49,878.4Z" transform="translate(-45.254 -110.06)"/>
    <path id="パス_86" data-name="パス 86" d="M704.058,538.2c-42.619-25.3-66.6-11.735-70.692-9.589-14.515,7.625-27.529,8.6-42.87,14.384-18.021,6.8-14.7,44.925-4.845,47.151,34.711-27.7,96.831,8.693,96.3,14.646-15.18-1.1-46.335,1.33-69.634,1.179-6.809,0-13.78,0-20.367-1.461a37.429,37.429,0,0,0-14.525.312,7.736,7.736,0,0,1-8.925-4.553c-8.532-19.965-7.726-42.548,2.689-59.612C618,463.932,699.022,518.87,704.058,538.2Z" transform="translate(-86.935 -72.552)"/>
    <path id="パス_87" data-name="パス 87" d="M391.308,584.568c12.883,0,27.267,9.4,31.407,28.2-41.964-8.4-69.574-7.051-108.556-11.6C340.268,592.9,378.424,584.568,391.308,584.568Z" transform="translate(-40.684 -88.097)"/>
    <path id="パス_88" data-name="パス 88" d="M649.042,823.378c-9.368-39.516-61.112-86.154-51.009-104.255,6.86,10.375.524,5.218,33.241,45.076S649.042,823.378,649.042,823.378Z" transform="translate(-93.273 -113.139)"/>
    <path id="パス_89" data-name="パス 89" d="M303.219,533.365c24.961-48.854,76.181-30.581,96.881-19.41,8.643,4.664,32.687,17.225,36.021,21.334C405.3,543.941,358.448,506.772,303.219,533.365Z" transform="translate(-38.647 -72.572)"/>
    <path id="パス_90" data-name="パス 90" d="M469.7,769.747c12.319,10.959,29.473,23.077,48.451,7.8s27.952-5.389,24.85,1.2-44.492,23.47-69.624,3.6c-14.011-11.08-36.907-3.848-35.437-13.709S457.384,758.8,469.7,769.747Z" transform="translate(-63.709 -121.003)"/>
    <path id="パス_91" data-name="パス 91" d="M138.791,750.928c-53.1-48.2-45.691-103.056-37.4-119.616s28.526-24.477,40.916-4.029C102.206,655.315,134.832,722.975,138.791,750.928Z" transform="translate(0 -93.773)"/>
    <path id="パス_92" data-name="パス 92" d="M521.623,973.31c-16.64,6.89-17.577,11.08-28.365,11.08-22.513,0-30.219-12.088-33.331-16.066C467.552,963.056,507.763,956.71,521.623,973.31Z" transform="translate(-67.812 -158.454)"/>
    <path id="パス_93" data-name="パス 93" d="M460.4,939.873c26.935,2.82,53.386,2.679,78.267-10.415C526.284,951.87,486.748,953.33,460.4,939.873Z" transform="translate(-67.9 -152.285)"/>
    <path id="パス_94" data-name="パス 94" d="M810.794,699.4c.614-9.69,5.409-40.06-10.174-51.442,2.125-1.833,9.358-10.194,17.315.494S818.4,690,810.794,699.4Z" transform="translate(-131.219 -98.993)"/>
    <path id="パス_95" data-name="パス 95" d="M656.634,649.671c-23.218,7.645-41.077,8.592-59.813-8.753C620.351,650.275,644.566,646.891,656.634,649.671Z" transform="translate(-93.29 -98.584)"/>
    <path id="パス_96" data-name="パス 96" d="M388.8,636.908c-24.981,0-33.946-6.044-36.262-7.625l29.645-.856a319.773,319.773,0,0,0,40.674-3.858C420.963,626.684,413.771,636.908,388.8,636.908Z" transform="translate(-47.826 -95.542)"/>
    <path id="パス_97" data-name="パス 97" d="M159.027,703.824c-3.485-11.282-1.692-34.47,17.124-37.461-9.186,20.972,7.494,48.844,0,62.321C176.111,728.684,162.512,715.1,159.027,703.824Z" transform="translate(-11.544 -103.32)"/>
  </g>
</svg>
