<svg xmlns="http://www.w3.org/2000/svg" width="314.922" height="859.938" viewBox="0 0 314.922 859.938">
  <g id="グループ_17" data-name="グループ 17" transform="translate(-960 -2084.172)">
    <path id="パス_101" data-name="パス 101" d="M699.08,463.53C693.65,134.92,467.76,83.62,408.57,83.62c0,0-.65,182.22-1,406.28,0,0,43,92.85,44.79,124.42,2.25,40.65-44.79,33.23-44.79,33.23s.77,29.59,0,42.26c0,0,118.71-21.91,118.46,33.06-.36,80.21-91.51,57.25-118.46,97.85,0,0,.28,123.67.61,123.18,57-3.66,166.45-6.94,240.2-256.91,14.64-49.59,53-20.33,70.41-134.14C733.21,475.31,699.38,481.47,699.08,463.53ZM550.69,536.58c-40.33,5.4-75.9-12.45-79.45-39.85s26.25-54,66.57-59.4,75.9,12.45,79.46,39.86S591,531.19,550.69,536.58Z" transform="translate(552.844 2000.585)" fill="#c9caca"/>
    <path id="パス_3" data-name="パス 3" d="M408.27,179.36s40.37,9.85,40.37-23.94-40.19-25-40.19-25l-.48-30L477.43,102c-9.84,11.88,0,23.29,0,53.46,0,65.2-69.16,54.71-69.16,54.71Z" transform="translate(552.272 2020.585)" fill="#040000"/>
    <path id="パス_3-2" data-name="パス 3" d="M408.27,263.85s52.59,9.84,52.59-23.94-52.69-25.33-52.69-25.33l.08-29.76s78.5-12.12,78.5,56.86c0,14-3.66,24.46-9.4,32.16-3.92,5.25,21.74,14,21.74,14-23.24,13.07-91.2,6.05-91.2,6.05Z" transform="translate(552.272 2020.585)" fill="#040000"/>
    <path id="パス_103" data-name="パス 103" d="M631.21,404c-53.84-30.93-125.28-17-165.38-4.9a40.87,40.87,0,0,1-47.54-19.59l-10.48-19.36-.24,138.9s28.12,72.57,41.84,108.28c5.57,14.52-2.13,30.88-16.81,35.39a129.612,129.612,0,0,1-25,4.79s-.35,49.57,0,47.4c83.55-3.82,113.37,17,112.65,42.06,1.5,53.66-112.65,45.57-112.65,45.57v40.64c16.55-9.12,112.65,12.24,112.65,12.24s8.31,28.88,8,30.2c9.71-5.17,56.69-117.65,39.25-165.52s-90.2-47.29-90.2-47.29a30.8,30.8,0,0,0,19.09-29.28c0-21.18-7.23-43.64-7.23-43.64s97.17,33.32,149.18-25.81S663.07,373,663.07,373,646,399.24,631.21,404ZM550.69,536.58c-40.33,5.4-75.9-12.45-79.45-39.85s26.25-54,66.57-59.4,75.9,12.45,79.46,39.86S591,531.19,550.69,536.58Z" transform="translate(552.844 2000.585)" fill="#040000"/>
  </g>
</svg>
