<svg xmlns="http://www.w3.org/2000/svg" width="314.922" height="860.281" viewBox="0 0 314.922 860.281">
  <g id="prowres_アートボード_1_のコピー_2" data-name="prowres_アートボード 1 のコピー 2" transform="translate(-407.444 -83.62)">
    <path id="パス_98" data-name="パス 98" d="M699.08,463.53C693.65,134.92,467.76,83.62,408.57,83.62c0,0-.65,182.22-1,406.28,0,0,43,92.85,44.79,124.42,2.25,40.65-44.79,33.23-44.79,33.23s.77,29.59,0,42.26c0,0,118.71-21.91,118.46,33.06-.36,80.21-91.51,57.25-118.46,97.85,0,0,.28,123.67.61,123.18,57-3.66,166.45-6.94,240.2-256.91,14.64-49.59,53-20.33,70.41-134.14C733.21,475.31,699.38,481.47,699.08,463.53ZM550.69,536.58c-40.33,5.4-75.9-12.45-79.45-39.85s26.25-54,66.57-59.4,75.9,12.45,79.46,39.86S591,531.19,550.69,536.58Z" fill="#c9caca"/>
    <path id="パス_99" data-name="パス 99" d="M528.22,865.66h-.07S528.21,865.7,528.22,865.66Z" fill="#040000"/>
    <path id="パス_100" data-name="パス 100" d="M631.21,404c-53.84-30.93-125.28-17-165.38-4.9a40.87,40.87,0,0,1-47.54-19.59l-10.48-19.36-.24,138.9s28.12,72.57,41.84,108.28c5.57,14.52-2.13,30.88-16.81,35.39a129.612,129.612,0,0,1-25,4.79s-.35,49.57,0,47.4c83.55-3.82,113.37,17,112.65,42.06,1.5,53.66-112.65,45.57-112.65,45.57v40.64c16.55-9.12,112.65,12.24,112.65,12.24s8.31,28.88,8,30.2c9.71-5.17,56.69-117.65,39.25-165.52s-90.2-47.29-90.2-47.29a30.8,30.8,0,0,0,19.09-29.28c0-21.18-7.23-43.64-7.23-43.64s97.17,33.32,149.18-25.81S663.07,373,663.07,373,646,399.24,631.21,404ZM550.69,536.58c-40.33,5.4-75.9-12.45-79.45-39.85s26.25-54,66.57-59.4,75.9,12.45,79.46,39.86S591,531.19,550.69,536.58Z" fill="#040000"/>
    <path id="パス_3" data-name="パス 3" d="M408.05,258l.27-95.14,41.28,95.38c18.11-9.41,17.81-128-8.49-131.07h76.35C475,154.66,503.91,279.7,451.6,327.72,415.1,250.39,408.05,258,408.05,258Z" transform="translate(-0.605 10)" fill="#040000"/>
  </g>
</svg>
