<svg xmlns="http://www.w3.org/2000/svg" width="457.609" height="737.25" viewBox="0 0 457.609 737.25">
  <g id="prowres_アートボード_1_のコピー_5" data-name="prowres_アートボード 1 のコピー 5" transform="translate(-155.822 -175.32)">
    <path id="パス_122" data-name="パス 122" d="M215.4,573.7c-4-7.52-7.77-17.7-19.61-18.43-.8,0-17.2-96-4-143.3C256.88,178.46,525,235,586.54,351.49c49.34,93.42,8.7,196.92,5.46,215.29-11.2-84.9-30.79-87.93-17.72-129.88s-32.85-100-61-90.95C365.89,393.18,296,340,269,361.53s10.19,68.17-11.51,108.81S219.77,508.41,215.4,573.7Z"/>
    <path id="パス_123" data-name="パス 123" d="M285,836c51.56,30.33,139.63,76.36,222,21.22-17.06,34.44-55.31,55.35-92.46,55.35C361.9,912.6,337.05,884.31,285,836Z"/>
    <path id="パス_124" data-name="パス 124" d="M453.43,756.25c6-3.73,7.76-7.65,12.09-14a4.73,4.73,0,0,0-3.36-7.37c-13.42-1.56-26.53-6-49.27-12.81-15.53-4.63-30.74-3.44-45.66-.26-5.66,1.21-10.84,5.22-15.78,8.63-.75.52.34,5.29,1.82,7s4.65,2.46,8.62,4.36c-19.95,3.6-40.22-12.07-45.11-34.78-3.52.61-7.21,6-6.48,11.13-.85-.28-6.27-4.88,4.15-34.87,15.81-45.49,46.07-56,52.47-62.42-10.61,16.92-9.07,31.37,0,38.9-3.72,2.6-10.76,1.54-15.68-6.91-8.22,3.05-16.06,20-18.87,25.65-5.39,10.77-7.22,23.86-8.18,36.14-.61,7.71,10.37,9.41,13.25,6.53,25.17-25.18,46.17-20,71.23-14,13.15,3.19,24.56.31,38,2.74,20,3.63,29,23.77,38.43,27.66C485.1,741.62,472.43,757.1,453.43,756.25Z"/>
    <path id="パス_125" data-name="パス 125" d="M557.22,523.29c-32.8-19.48-51.26-9-54.41-7.38-11.17,5.86-21.19,6.62-33,11.07-13.86,5.23-11.3,34.57-3.72,36.28,26.72-21.32,74.52,6.69,74.11,11.28-11.68-.84-35.64,1-53.59.91-5.24,0-10.61,0-15.67-1.13a28.921,28.921,0,0,0-11.19.24,5.94,5.94,0,0,1-6.86-3.5c-6.57-15.37-5.95-32.75,2.06-45.88C491,466.09,553.33,508.41,557.22,523.29Z"/>
    <path id="パス_126" data-name="パス 126" d="M352.13,547c9.92,0,21,7.23,24.18,21.7-32.3-6.47-53.55-5.45-83.55-8.93C312.85,553.42,342.21,547,352.13,547Z"/>
    <path id="パス_127" data-name="パス 127" d="M510,711.53c-7.21-30.41-47-66.31-39.26-80.24,5.28,8,.41,4,25.57,34.7S510,711.53,510,711.53Z"/>
    <path id="パス_128" data-name="パス 128" d="M285.9,519.55c19.21-37.6,58.63-23.54,74.57-14.94,6.64,3.59,25.15,13.25,27.72,16.42C364.47,527.69,328.41,499.08,285.9,519.55Z"/>
    <path id="パス_129" data-name="パス 129" d="M394.75,664.21c9.48,8.43,22.68,17.76,37.29,6s21.51-4.14,19.13.93-34.28,18.06-53.59,2.78c-10.78-8.53-28.4-3-27.28-10.55S385.27,655.78,394.75,664.21Z"/>
    <path id="パス_130" data-name="パス 130" d="M189.09,670.68c-40.86-37.1-35.16-79.32-28.79-92.06s22-18.84,31.49-3.11C160.94,597.09,186.05,649.17,189.09,670.68Z"/>
    <path id="パス_131" data-name="パス 131" d="M431.55,792.06c-12.81,5.3-13.53,8.5-21.83,8.5-17.33,0-23.29-9.33-25.65-12.36C389.93,784.16,420.88,779.28,431.55,792.06Z"/>
    <path id="パス_132" data-name="パス 132" d="M384.37,771.07c20.72,2.17,41,2,60.23-8C435.07,780.3,404.64,781.42,384.37,771.07Z"/>
    <path id="パス_133" data-name="パス 133" d="M605.31,627c.47-7.46,4.16-30.83-7.83-39.6,1.63-1.4,7.2-7.84,13.33.39S611.16,619.77,605.31,627Z"/>
    <path id="パス_134" data-name="パス 134" d="M515.85,589.05c-17.87,5.88-31.61,6.61-46-6.75C487.93,589.51,506.57,586.9,515.85,589.05Z"/>
    <path id="パス_135" data-name="パス 135" d="M344.7,581.56c-19.22,0-26.12-4.69-27.9-5.87l22.81-.66a245.95,245.95,0,0,0,31.31-3C369.46,573.7,363.93,581.56,344.7,581.56Z"/>
    <path id="パス_136" data-name="パス 136" d="M195.79,627.07c-2.68-8.67-1.31-26.52,13.14-28.83-7.07,16.15,5.77,37.6,0,48C208.93,646.21,198.47,635.75,195.79,627.07Z"/>
    <circle id="楕円形_10" data-name="楕円形 10" cx="55.19" cy="55.19" r="55.19" transform="translate(279.34 513.52)" fill="none" stroke="#231815" stroke-miterlimit="10" stroke-width="5"/>
    <circle id="楕円形_11" data-name="楕円形 11" cx="55.19" cy="55.19" r="55.19" transform="translate(451.63 513.52)" fill="none" stroke="#231815" stroke-miterlimit="10" stroke-width="5"/>
    <path id="パス_137" data-name="パス 137" d="M389.73,574.65a43.78,43.78,0,0,1,61.89,0" fill="none" stroke="#231815" stroke-miterlimit="10" stroke-width="5"/>
    <line id="線_14" data-name="線 14" x2="68.02" transform="translate(215.76 547.01)" fill="none" stroke="#231815" stroke-miterlimit="10" stroke-width="5"/>
    <line id="線_15" data-name="線 15" x2="35.36" transform="translate(557.22 547.01)" fill="none" stroke="#231815" stroke-miterlimit="10" stroke-width="5"/>
    <path id="パス_138" data-name="パス 138" d="M460.85,232.32c0,31.47-64.9,93.33-64.9,93.33s-64.9-61.86-64.9-93.33,29.06-57,64.9-57S460.85,200.84,460.85,232.32Z"/>
    <path id="パス_139" data-name="パス 139" d="M405.71,248.18s-109.47,13-123.9-16.05c9,42.09,59.49,56.59,59.49,56.59Z"/>
  </g>
</svg>
