<svg xmlns="http://www.w3.org/2000/svg" xmlns:xlink="http://www.w3.org/1999/xlink" width="221" height="221" viewBox="0 0 221 221"><defs><clipPath id="a"><rect width="221" height="221" transform="translate(724 180)" fill="#d6d6d6"/></clipPath><clipPath id="b"><rect width="221" height="138.534" transform="translate(-6.574 -7.486)" fill="none"/></clipPath></defs><g transform="translate(-724 -180)" clip-path="url(#a)"><g transform="translate(730.574 228.72)"><g clip-path="url(#b)"><path d="M268.225,133.543c-.262-1.583-4.652-3.466-4.979-2.969s.427.859.2.89-1.617-.89-2.08-.659,0,.793,0,.793-.824-.331-.924-.035c-.624,1.452,3.439,2.311,3.851,2.938l.493,1.286c-1.055,0-.924-1.19-1.714-1.19s-1.718-.131-.924,1.19,3.782,3.828,4.86,3.3v7.255s-.659,6.35-1.155,11.88c-2.311-3.5-5.661-8.453-6-8.622-.528-.266-4.236-.882-5.365.408s-8.9,2.78-8.9,2.78a64.82,64.82,0,0,1,.447-9.35c.616-4.926-2.992-5.8-3.608-6.855s-5.63-6.87-5.834-7.748a20.758,20.758,0,0,1-1.117-3.7c-.089-1.321,1.336-3.466,2.311-5.48s-.15-3-1.54-3.258-2.418.558-3.913,2.846-4.752,1.228-4.841,4.66,2.626,2.557,3.608,6.162c2.434,8.915,0,7.036,4.664,12.142.439,2.022-2.465,6.6-2.465,6.6s-3.52-14.607-5.365-18.316c-.443-3.081-4.294-4.236-5.934-5.207.27-1.571-5.911-7.429-8.584-11.584-1.664-2.588-1.19-4.059-1.055-4.4.35-.882,0-1.926.616-5.006s.616-3.963-2.9-3.963c-2.13,0-2.815,4.313-2.815,4.313s-1.848.266-2.114,5.006c-.154,2.773-.2,1.687,3.081,7.479,2.341,4.144-.655,12.258,10.6,19.452-1.175,9.712,4,14.422,3.97,16.359a27.507,27.507,0,0,0,.736,5.707c4.725,23.449,36.161,11.168,39.666,9.339a8.088,8.088,0,0,0,1.764-1.271,6.283,6.283,0,0,0,.443-.466h0c.531-.431,7.51-4.379,7.791-11.168s-4.737-19.972-5.006-21.566" transform="translate(-125.317 -100.327)" fill="#e60012"/><path d="M263.77,188.825a6.267,6.267,0,0,0,0-3.736c-.1-.789-.8-1.425-.851-2.211s1.313-1.633.682-2.264a5.542,5.542,0,0,1-1.259-.659,1.7,1.7,0,0,1-.843-2.08c-.154-.15-.135-.547,0-1.036a2.253,2.253,0,0,0-2.777-2.727,7.752,7.752,0,0,0-2.892,1.448s-3.716.689-3.959-1.155c.277,1.779,3.959,1.155,3.959,1.155,2.7-2.522,7.19.123,7.429-4.356.019-.312,2.7-.8,2.538-1.074-1.356.539-2.838-.347-4.54-.031-5.411.924-10.59-1.332-12.246-2.091-1.1-2.253-7.209-3.816-7.209-3.816s-.551-3.466-2.368-5.133c1.155.169,2.361-4.7,5.449-7.737,2.769-2.723,7.513-3.635,7.737-3.709.474-.158.709-1.344,0-1.579s-.474-.158-1.263-.712-.632,0-2.053,0-4.421,1.976-4.421,1.976c-7.579-.789-14.368,4.814-15.789,7.024-.659,1.024-.843,5.149-.647,9.339-2.164-.52-7.317,6.046-9.223,5.584s-3.543,3.058-4.579,2.761c-1.656-.474-1.737,1.028-1.737,1.028-15.235,1.737-20.368,13.579-21.316,13.895s-2.7,2.673-2.7,4.972c0,4.421,8.765,21.158,7.737,27.631-.281,1.795-1.737,3.87-2.368,5.21s0,1.421,0,1.421a29.187,29.187,0,0,0,6.239,0c2.761-.385,2.842-2.919,2.761-4.182s3.878-5.391,3.77-6.89c-.216-2.981-3.3-2.349-5.11-4.236s1.024-12.539-.385-17.368c5.449-.454,10.579-3.789,11.607-4.34s2.21-.632,1.972.709a16.277,16.277,0,0,0,.87,7.421c.555,1.5,7.248,10.436,7.117,12.647s3.7,6.142,4.171,8.118-1.024,3.466-.316,4.024,5.449.239,6.474,0,.632-.947.632-2.368-1.5-2.526-1.737-6.077c-.208-3.135-2.761-2.526-3.235-9.4s-2.053-8.919-2.211-9.551-1.5-1.421-.947-2.21-.632-2.7.866-3.158c3.135-.99,4.263-3.632,6.631-4.66s6.658.135,8.5.5,1.737-1.841,2.515,0,0,1.633.747,2.95,2,2.788,2.9,4.263,2.788,4.579,5.472,5.006c5.927,2.311,10.475-3.212,11-4.475s0-2.264-.77-4.051" transform="translate(-125.317 -100.327)" fill="#231815"/><path d="M263.77,188.825a6.267,6.267,0,0,0,0-3.736c-.1-.789-.8-1.425-.851-2.211s1.313-1.633.682-2.264a5.542,5.542,0,0,1-1.259-.659,1.7,1.7,0,0,1-.843-2.08c-.154-.15-.135-.547,0-1.036a2.253,2.253,0,0,0-2.777-2.727,7.752,7.752,0,0,0-2.892,1.448s-3.716.689-3.959-1.155c.277,1.779,3.959,1.155,3.959,1.155,2.7-2.522,7.19.123,7.429-4.356.019-.312,2.7-.8,2.538-1.074-1.356.539-2.838-.347-4.54-.031-5.411.924-10.59-1.332-12.246-2.091-1.1-2.253-7.209-3.816-7.209-3.816s-.551-3.466-2.368-5.133c1.155.169,2.361-4.7,5.449-7.737,2.769-2.723,7.513-3.635,7.737-3.709.474-.158.709-1.344,0-1.579s-.474-.158-1.263-.712-.632,0-2.053,0-4.421,1.976-4.421,1.976c-7.579-.789-14.368,4.814-15.789,7.024-.659,1.024-.843,5.149-.647,9.339-2.164-.52-7.317,6.046-9.223,5.584s-3.543,3.058-4.579,2.761c-1.656-.474-1.737,1.028-1.737,1.028-15.235,1.737-20.368,13.579-21.316,13.895s-2.7,2.673-2.7,4.972c0,4.421,8.765,21.158,7.737,27.631-.281,1.795-1.737,3.87-2.368,5.21s0,1.421,0,1.421a29.187,29.187,0,0,0,6.239,0c2.761-.385,2.842-2.919,2.761-4.182s3.878-5.391,3.77-6.89c-.216-2.981-3.3-2.349-5.11-4.236s1.024-12.539-.385-17.368c5.449-.454,10.579-3.789,11.607-4.34s2.21-.632,1.972.709a16.277,16.277,0,0,0,.87,7.421c.555,1.5,7.248,10.436,7.117,12.647s3.7,6.142,4.171,8.118-1.024,3.466-.316,4.024,5.449.239,6.474,0,.632-.947.632-2.368-1.5-2.526-1.737-6.077c-.208-3.135-2.761-2.526-3.235-9.4s-2.053-8.919-2.211-9.551-1.5-1.421-.947-2.21-.632-2.7.866-3.158c3.135-.99,4.263-3.632,6.631-4.66s6.658.135,8.5.5,1.737-1.841,2.515,0,0,1.633.747,2.95,2,2.788,2.9,4.263,2.788,4.579,5.472,5.006c5.927,2.311,10.475-3.212,11-4.475S264.567,190.627,263.77,188.825Z" transform="translate(-125.317 -100.327)" fill="none" stroke="#fff" stroke-miterlimit="10" stroke-width="2.245"/><path d="M238.6,112.967c.77-.293,3.612,1.309,3.851,1.756s.751-1.113,1.406-.924.7,1.887.878,2.7a8.679,8.679,0,0,1,0,3.685,17.824,17.824,0,0,0,.7,6.847,23.338,23.338,0,0,0,2.018,5.006c1.756,2.9,2.592,9.685,5.091,12.708,6.408,3.512,6.373,7.071,7.286,11.322,1.205,5.634-13.167.616-16.151-8.087a31.486,31.486,0,0,1-1.579-7.9c-.35-2.284-4.213-7.987-1.926-16.675s-1.124-4.433-1.583-6.231c0,0-.666.077-.5-.481s-.231-.628-.385-.385-.917-.724-.162-.986-.038-.462-.169-.859a.836.836,0,0,1,.855-.951c.5.1-.7-.123.385-.539" transform="translate(-125.317 -100.327)" fill="#e60012"/><path d="M238.6,112.967c.77-.293,3.612,1.309,3.851,1.756s.751-1.113,1.406-.924.7,1.887.878,2.7a8.679,8.679,0,0,1,0,3.685,17.824,17.824,0,0,0,.7,6.847,23.338,23.338,0,0,0,2.018,5.006c1.756,2.9,2.592,9.685,5.091,12.708,6.408,3.512,6.373,7.071,7.286,11.322,1.205,5.634-13.167.616-16.151-8.087a31.486,31.486,0,0,1-1.579-7.9c-.35-2.284-4.213-7.987-1.926-16.675s-1.124-4.433-1.583-6.231c0,0-.666.077-.5-.481s-.231-.628-.385-.385-.917-.724-.162-.986-.038-.462-.169-.859a.836.836,0,0,1,.855-.951C238.723,113.606,237.525,113.383,238.6,112.967Z" transform="translate(-125.317 -100.327)" fill="none" stroke="#fff" stroke-miterlimit="10" stroke-width="2.003"/><path d="M269.15,143.012c-.123.932-1.406-1.032-2.908,0s-1.594,2.157-2.341,2.06-1.221-.458-1.875,0-2.249,2.619-3.562,3.081-.751,2.438-.385,2.719a16.278,16.278,0,0,1,1.348,4.756,1.56,1.56,0,0,0,.951,1.275,27.35,27.35,0,0,1,4.544,2.218c.655.655,9.936-2.815,11.06-6.658s-.385-9.562-1.594-10.5-4.779-2.53-5.249,1.032" transform="translate(-125.317 -100.327)" fill="#e60012"/><path d="M269.15,143.012c-.123.932-1.406-1.032-2.908,0s-1.594,2.157-2.341,2.06-1.221-.458-1.875,0-2.249,2.619-3.562,3.081-.751,2.438-.385,2.719a16.278,16.278,0,0,1,1.348,4.756,1.56,1.56,0,0,0,.951,1.275,27.35,27.35,0,0,1,4.544,2.218c.655.655,9.936-2.815,11.06-6.658s-.385-9.562-1.594-10.5S269.619,139.45,269.15,143.012Z" transform="translate(-125.317 -100.327)" fill="none" stroke="#fff" stroke-miterlimit="10" stroke-width="1.594"/><path d="M246.968,120.126c0,5.3-1.841,9.585-4.109,9.585s-4.094-4.29-4.094-9.585c0-2.923-1.875-4.047-.99-5.8.716-1.425,4.086-3.782,5.1-3.782,2.268,0,4.109,4.294,4.109,9.585" transform="translate(-125.317 -100.327)" fill="#fff"/><path d="M249.163,134.016c.431.866,3.632,4.517,3.632,8.361,3.466,1.506,5.122,5.276,4.694,9.085-2.153.689-10.687-5.049-12.458-4.972-.628.027-2.033-6.062-2.13-6.647-.223-1.367-2.888-8-3.081-8.692-.212-.77.6-11.457.9-13.536.092-.639-.481-.944-.955-1.4a1.9,1.9,0,0,0-1.483-.747c-1.926-.628-2.126,1.005-3.081.246-.262-.239.689-1.028.851-1.217a4.615,4.615,0,0,1,1.791-.878c-.5,0-3.932.743-4.175.254-.343-.7,3.181-1.155,3.223-1.494-.485-.963-3.851.173-3.6-1.105.2-.323,3.6-.431,4.456-.166.385-.142-3.142-1.54-2.338-1.86,1.429-.582,5.838,2.068,7.059,3.177,1.059.967,1.614-2.176,2.931-1.787a5.2,5.2,0,0,1,.239,3.081c-.994,2.4,1.887,17.091,3.5,20.31" transform="translate(-125.317 -100.327)" fill="#e60012"/><path d="M249.163,134.016c1.448.3,3.632,4.517,3.632,8.361" transform="translate(-125.317 -100.327)" fill="#e60012"/><path d="M139.258,192.213q-1.429.847-2.842,1.725c-.385-2.673-1.332-3.427-2.834-2.28a6.932,6.932,0,0,0-2.145,2.615,7.209,7.209,0,0,0-.639,3.323,2.792,2.792,0,0,0,.886,2.11,57.466,57.466,0,0,1,6.547,6.762,9.585,9.585,0,0,1,2.08,5.723l.116,2.184a10.58,10.58,0,0,1-1.486,6.347,4.887,4.887,0,0,1-4.282,2.549h-3.1a6.473,6.473,0,0,1-4.687-1.621,6.138,6.138,0,0,1-1.54-4.621l3.023-.57v.57a2.311,2.311,0,0,0,.99,2.018,3.212,3.212,0,0,0,2.11.566,2.838,2.838,0,0,0,2.311-1.2,5.17,5.17,0,0,0,.6-3.027,4.078,4.078,0,0,0-.97-2.58,47.928,47.928,0,0,0-6.4-6.227,4.108,4.108,0,0,1-1.656-3.555v-1.54a14.091,14.091,0,0,1,1.54-5.777,16.821,16.821,0,0,1,3.716-5.461q1.332-1.205,2.7-2.376c3.4-3.008,5.449-1.506,6,4.348" transform="translate(-125.317 -100.327)" fill="#e60012"/><path d="M156.272,171.537q3.008-1.721,6.077-3.3,1.321,21.393,2.661,42.8a18.613,18.613,0,0,1-1.29,8.684c-1.067,2.418-2.453,3.574-4.148,3.57h-6.239c-1.694,0-3.223-1.04-4.571-2.965a12.955,12.955,0,0,1-2.257-6.87q-1.028-17.168-2.06-34.34,2.888-2.045,5.846-3.932,1.178,18.7,2.365,37.394a7.479,7.479,0,0,0,1.155,3.709,2.6,2.6,0,0,0,2.276,1.479c.84-.062,1.571-.659,2.107-1.848a8.653,8.653,0,0,0,.651-4.144Z" transform="translate(-125.317 -100.327)" fill="#e60012"/><path d="M172.011,223.272q-1.718-29.021-3.435-58.039,6.285-2.854,12.766-5.091c1.756-.608,3.347.3,4.752,2.777a21.544,21.544,0,0,1,2.361,9.674q.162,3.6.32,7.213a27.016,27.016,0,0,1-1.425,10.513c-1.117,3.046-2.538,4.656-4.259,4.929q-3.173.5-6.323,1.059.739,13.479,1.483,26.957Zm4.367-33.77q1.571-.35,3.146-.682c.89-.185,1.606-1.017,2.16-2.515a12.812,12.812,0,0,0,.689-5.118l-.347-6.986a10.261,10.261,0,0,0-1.194-4.725c-.7-1.175-1.5-1.61-2.392-1.313-1.063.354-2.122.716-3.177,1.094q.562,10.121,1.113,20.245" transform="translate(-125.317 -100.327)" fill="#e60012"/><path d="M271.252,223.272q1.513-32.095,3.023-64.189,3.25,1.04,6.47,2.237-1.444,27.547-2.892,55.108,4.683.2,9.358.435-.189,3.212-.385,6.42Z" transform="translate(-125.317 -100.327)" fill="#231815"/><path d="M293.034,223.272q1.71-27.512,3.424-55.031a147.079,147.079,0,0,1,15.019,8.857q-.154,2.557-.316,5.11-4.406-2.615-8.954-4.929l-1.1,17.237q3.081.963,6.1,2.018-.173,2.7-.343,5.391-3.046-.84-6.123-1.61-.547,8.619-1.1,17.237,4.656.289,9.293.612-.158,2.557-.316,5.11Z" transform="translate(-125.317 -100.327)" fill="#231815"/><path d="M314.811,223.272q.327-5.838.662-11.676c.32-5.549,2.511-8.087,6.458-7.178-3.9-2.126-5.711-6.011-5.391-11.553q.335-5.842.666-11.676,2.846,2.122,5.611,4.4l-.589,12.57a6.712,6.712,0,0,0,.712,3.335,4.236,4.236,0,0,0,1.983,2.114,1.926,1.926,0,0,0,2.095-.158,2.649,2.649,0,0,0,.917-2.157l.323-11q2.657,2.415,5.23,4.983v7.752c0,3.6-1.849,4.71-5.715,3.743,3.8,2.311,5.7,5.168,5.715,8.734v7.768h-6.2l.324-11a5.211,5.211,0,0,0-.789-2.869,4.032,4.032,0,0,0-2.053-1.852,1.883,1.883,0,0,0-2.122.485,3.932,3.932,0,0,0-1.009,2.665l-.589,12.57Z" transform="translate(-125.317 -100.327)" fill="#231815"/></g><rect transform="translate(103.928 61.778)" fill="#fff" stroke="#231815" stroke-miterlimit="10" stroke-width="0.385"/></g></g></svg>